<mxfile host="app.diagrams.net" agent="Mozilla/5.0 (Windows NT 10.0; Win64; x64) AppleWebKit/537.36 (KHTML, like Gecko) Chrome/134.0.0.0 Safari/537.36" version="26.2.4">
  <diagram name="PÃ¡gina-1" id="_-YYos8oILTW5DNkMdg2">
    <mxGraphModel grid="1" page="1" gridSize="10" guides="1" tooltips="1" connect="1" arrows="1" fold="1" pageScale="1" pageWidth="827" pageHeight="1169" math="0" shadow="0">
      <root>
        <mxCell id="0" />
        <mxCell id="1" parent="0" />
        <mxCell id="57ll8kT93u-lEm1n9qy_-18" value="" style="edgeStyle=orthogonalEdgeStyle;rounded=0;orthogonalLoop=1;jettySize=auto;html=1;" edge="1" parent="1" source="57ll8kT93u-lEm1n9qy_-1" target="57ll8kT93u-lEm1n9qy_-14">
          <mxGeometry relative="1" as="geometry" />
        </mxCell>
        <mxCell id="57ll8kT93u-lEm1n9qy_-26" value="" style="edgeStyle=orthogonalEdgeStyle;rounded=0;orthogonalLoop=1;jettySize=auto;html=1;" edge="1" parent="1" source="57ll8kT93u-lEm1n9qy_-1" target="57ll8kT93u-lEm1n9qy_-25">
          <mxGeometry relative="1" as="geometry" />
        </mxCell>
        <mxCell id="57ll8kT93u-lEm1n9qy_-32" value="" style="edgeStyle=orthogonalEdgeStyle;rounded=0;orthogonalLoop=1;jettySize=auto;html=1;" edge="1" parent="1" source="57ll8kT93u-lEm1n9qy_-1" target="57ll8kT93u-lEm1n9qy_-31">
          <mxGeometry relative="1" as="geometry" />
        </mxCell>
        <mxCell id="57ll8kT93u-lEm1n9qy_-1" value="Proyecto" style="rounded=0;whiteSpace=wrap;html=1;" vertex="1" parent="1">
          <mxGeometry x="110" y="80" width="120" height="60" as="geometry" />
        </mxCell>
        <mxCell id="57ll8kT93u-lEm1n9qy_-8" value="" style="edgeStyle=orthogonalEdgeStyle;rounded=0;orthogonalLoop=1;jettySize=auto;html=1;" edge="1" parent="1" source="57ll8kT93u-lEm1n9qy_-2" target="57ll8kT93u-lEm1n9qy_-7">
          <mxGeometry relative="1" as="geometry" />
        </mxCell>
        <mxCell id="57ll8kT93u-lEm1n9qy_-2" value="Empleado" style="rounded=0;whiteSpace=wrap;html=1;" vertex="1" parent="1">
          <mxGeometry x="490" y="80" width="120" height="60" as="geometry" />
        </mxCell>
        <mxCell id="57ll8kT93u-lEm1n9qy_-10" style="edgeStyle=orthogonalEdgeStyle;rounded=0;orthogonalLoop=1;jettySize=auto;html=1;" edge="1" parent="1" source="57ll8kT93u-lEm1n9qy_-3" target="57ll8kT93u-lEm1n9qy_-4">
          <mxGeometry relative="1" as="geometry" />
        </mxCell>
        <mxCell id="57ll8kT93u-lEm1n9qy_-3" value="Tareas" style="rounded=0;whiteSpace=wrap;html=1;" vertex="1" parent="1">
          <mxGeometry x="294" y="260" width="120" height="60" as="geometry" />
        </mxCell>
        <mxCell id="57ll8kT93u-lEm1n9qy_-11" style="edgeStyle=orthogonalEdgeStyle;rounded=0;orthogonalLoop=1;jettySize=auto;html=1;" edge="1" parent="1" source="57ll8kT93u-lEm1n9qy_-4" target="57ll8kT93u-lEm1n9qy_-1">
          <mxGeometry relative="1" as="geometry" />
        </mxCell>
        <mxCell id="57ll8kT93u-lEm1n9qy_-4" value="pertenece" style="rhombus;whiteSpace=wrap;html=1;rounded=0;" vertex="1" parent="1">
          <mxGeometry x="130" y="250" width="80" height="80" as="geometry" />
        </mxCell>
        <mxCell id="57ll8kT93u-lEm1n9qy_-9" value="" style="edgeStyle=orthogonalEdgeStyle;rounded=0;orthogonalLoop=1;jettySize=auto;html=1;" edge="1" parent="1" source="57ll8kT93u-lEm1n9qy_-7" target="57ll8kT93u-lEm1n9qy_-3">
          <mxGeometry relative="1" as="geometry" />
        </mxCell>
        <mxCell id="57ll8kT93u-lEm1n9qy_-7" value="realiza" style="rhombus;whiteSpace=wrap;html=1;rounded=0;" vertex="1" parent="1">
          <mxGeometry x="510" y="250" width="80" height="80" as="geometry" />
        </mxCell>
        <mxCell id="57ll8kT93u-lEm1n9qy_-12" value="N:M" style="text;html=1;align=center;verticalAlign=middle;whiteSpace=wrap;rounded=0;" vertex="1" parent="1">
          <mxGeometry x="580" y="275" width="60" height="30" as="geometry" />
        </mxCell>
        <mxCell id="57ll8kT93u-lEm1n9qy_-13" value="1:N" style="text;html=1;align=center;verticalAlign=middle;whiteSpace=wrap;rounded=0;" vertex="1" parent="1">
          <mxGeometry x="140" y="330" width="60" height="30" as="geometry" />
        </mxCell>
        <mxCell id="57ll8kT93u-lEm1n9qy_-19" value="" style="edgeStyle=orthogonalEdgeStyle;rounded=0;orthogonalLoop=1;jettySize=auto;html=1;" edge="1" parent="1" source="57ll8kT93u-lEm1n9qy_-14" target="57ll8kT93u-lEm1n9qy_-2">
          <mxGeometry relative="1" as="geometry" />
        </mxCell>
        <mxCell id="57ll8kT93u-lEm1n9qy_-14" value="tiene" style="rhombus;whiteSpace=wrap;html=1;rounded=0;" vertex="1" parent="1">
          <mxGeometry x="330" y="70" width="80" height="80" as="geometry" />
        </mxCell>
        <mxCell id="57ll8kT93u-lEm1n9qy_-17" value="N:M" style="text;html=1;align=center;verticalAlign=middle;whiteSpace=wrap;rounded=0;" vertex="1" parent="1">
          <mxGeometry x="340" y="150" width="60" height="30" as="geometry" />
        </mxCell>
        <mxCell id="57ll8kT93u-lEm1n9qy_-21" value="&lt;u&gt;ID_proyecto&lt;/u&gt;&lt;div&gt;&lt;u&gt;ID_cliente&lt;br&gt;&lt;/u&gt;&lt;div&gt;fecha_inicio&lt;br&gt;&lt;div&gt;fecha_entrega&lt;/div&gt;&lt;div&gt;descripcion&lt;/div&gt;&lt;div&gt;nombre&lt;/div&gt;&lt;/div&gt;&lt;/div&gt;" style="ellipse;whiteSpace=wrap;html=1;" vertex="1" parent="1">
          <mxGeometry x="30" y="115" width="130" height="100" as="geometry" />
        </mxCell>
        <mxCell id="57ll8kT93u-lEm1n9qy_-22" value="&lt;u&gt;ID_proyecto&lt;/u&gt;&lt;div&gt;&lt;u&gt;ID_tarea&lt;/u&gt;&lt;/div&gt;&lt;div&gt;&lt;div&gt;nombre&lt;/div&gt;&lt;/div&gt;&lt;div&gt;fecha_inicio&lt;/div&gt;&lt;div&gt;fecha_fin&lt;/div&gt;&lt;div&gt;estado&lt;/div&gt;" style="ellipse;whiteSpace=wrap;html=1;" vertex="1" parent="1">
          <mxGeometry x="230" y="295" width="130" height="100" as="geometry" />
        </mxCell>
        <mxCell id="57ll8kT93u-lEm1n9qy_-23" value="&lt;div&gt;&lt;u&gt;ID_empleado&lt;/u&gt;&lt;/div&gt;&lt;u&gt;cuil&lt;/u&gt;&lt;br&gt;&lt;div&gt;&lt;div&gt;nombre&lt;/div&gt;&lt;/div&gt;&lt;div&gt;apellido&lt;/div&gt;&lt;div&gt;email&lt;/div&gt;&lt;div&gt;telefono&lt;/div&gt;&lt;div&gt;&amp;nbsp;cargo&lt;/div&gt;" style="ellipse;whiteSpace=wrap;html=1;" vertex="1" parent="1">
          <mxGeometry x="580" y="10" width="140" height="130" as="geometry" />
        </mxCell>
        <mxCell id="57ll8kT93u-lEm1n9qy_-24" value="Cliente" style="rounded=0;whiteSpace=wrap;html=1;" vertex="1" parent="1">
          <mxGeometry x="110" y="-150" width="120" height="60" as="geometry" />
        </mxCell>
        <mxCell id="57ll8kT93u-lEm1n9qy_-27" value="" style="edgeStyle=orthogonalEdgeStyle;rounded=0;orthogonalLoop=1;jettySize=auto;html=1;" edge="1" parent="1" source="57ll8kT93u-lEm1n9qy_-25" target="57ll8kT93u-lEm1n9qy_-24">
          <mxGeometry relative="1" as="geometry" />
        </mxCell>
        <mxCell id="57ll8kT93u-lEm1n9qy_-25" value="para" style="rhombus;whiteSpace=wrap;html=1;rounded=0;" vertex="1" parent="1">
          <mxGeometry x="130" y="-40" width="80" height="80" as="geometry" />
        </mxCell>
        <mxCell id="57ll8kT93u-lEm1n9qy_-29" value="1:N" style="text;html=1;align=center;verticalAlign=middle;whiteSpace=wrap;rounded=0;" vertex="1" parent="1">
          <mxGeometry x="210" y="-20" width="60" height="30" as="geometry" />
        </mxCell>
        <mxCell id="57ll8kT93u-lEm1n9qy_-30" value="&lt;u&gt;ID_cliente&lt;br&gt;&lt;/u&gt;&lt;div&gt;&lt;u&gt;DNI / Cuit&lt;/u&gt;&lt;div&gt;nombre&lt;/div&gt;&lt;/div&gt;&lt;div&gt;email&lt;/div&gt;&lt;div&gt;telefono&lt;/div&gt;" style="ellipse;whiteSpace=wrap;html=1;" vertex="1" parent="1">
          <mxGeometry x="20" y="-220" width="130" height="100" as="geometry" />
        </mxCell>
        <mxCell id="57ll8kT93u-lEm1n9qy_-34" value="" style="edgeStyle=orthogonalEdgeStyle;rounded=0;orthogonalLoop=1;jettySize=auto;html=1;" edge="1" parent="1" source="57ll8kT93u-lEm1n9qy_-31" target="57ll8kT93u-lEm1n9qy_-33">
          <mxGeometry relative="1" as="geometry" />
        </mxCell>
        <mxCell id="57ll8kT93u-lEm1n9qy_-31" value="tiene" style="rhombus;whiteSpace=wrap;html=1;rounded=0;" vertex="1" parent="1">
          <mxGeometry x="-70" y="70" width="80" height="80" as="geometry" />
        </mxCell>
        <mxCell id="57ll8kT93u-lEm1n9qy_-33" value="presupuesto" style="whiteSpace=wrap;html=1;rounded=0;" vertex="1" parent="1">
          <mxGeometry x="-250" y="80" width="120" height="60" as="geometry" />
        </mxCell>
        <mxCell id="57ll8kT93u-lEm1n9qy_-35" value="1:1" style="text;html=1;align=center;verticalAlign=middle;whiteSpace=wrap;rounded=0;" vertex="1" parent="1">
          <mxGeometry x="-60" y="40" width="60" height="30" as="geometry" />
        </mxCell>
        <mxCell id="57ll8kT93u-lEm1n9qy_-36" value="&lt;u&gt;ID_proyecto&lt;/u&gt;&lt;div&gt;&lt;u&gt;ID_presupuesto&lt;br&gt;&lt;/u&gt;&lt;div&gt;monto&lt;br&gt;&lt;div&gt;gasto&lt;/div&gt;&lt;/div&gt;&lt;/div&gt;" style="ellipse;whiteSpace=wrap;html=1;" vertex="1" parent="1">
          <mxGeometry x="-310" y="115" width="120" height="85" as="geometry" />
        </mxCell>
      </root>
    </mxGraphModel>
  </diagram>
</mxfile>
